HIERARCHY
ROOT Hips
{
	OFFSET 0.000000 83.214638 0.000000
	CHANNELS 6 Xposition Yposition Zposition Xrotation Yrotation Zrotation
	JOINT Pelvis
	{
		OFFSET 0.000000 0.000000 0.000000
		CHANNELS 3 Xrotation Yrotation Zrotation
		JOINT LeftUpLeg
		{
			OFFSET 8.479700 -4.795502 -0.379100
			CHANNELS 3 Xrotation Yrotation Zrotation
			JOINT LeftLeg
			{
				OFFSET 0.024144 -32.555107 0.112900
				CHANNELS 3 Xrotation Yrotation Zrotation
				JOINT LeftFoot
				{
					OFFSET -0.024144 -32.638630 -3.012600
					CHANNELS 3 Xrotation Yrotation Zrotation
					JOINT LeftToeBase
					{
						OFFSET 0.970200 -13.225400 11.864200
						CHANNELS 3 Xrotation Yrotation Zrotation
						End Site
						{
							OFFSET 0.000000 12.319262 0.000000
						}
					}
					JOINT LFootTongue
					{
						OFFSET 1.142400 -1.059800 6.665200
						CHANNELS 3 Xrotation Yrotation Zrotation
						End Site
						{
							OFFSET 0.000000 12.319262 0.000000
						}
					}
				}
				JOINT LeftPantLeg
				{
					OFFSET 0.918482 -16.533964 -2.284700
					CHANNELS 3 Xrotation Yrotation Zrotation
					End Site
					{
						OFFSET 0.350399 24.744368 0.000000
					}
				}
			}
		}
		JOINT RightUpLeg
		{
			OFFSET -8.479700 -4.795502 -0.379100
			CHANNELS 3 Xrotation Yrotation Zrotation
			JOINT RightLeg
			{
				OFFSET -0.023144 -32.555092 0.112900
				CHANNELS 3 Xrotation Yrotation Zrotation
				JOINT RightFoot
				{
					OFFSET 0.023144 -32.638641 -3.012700
					CHANNELS 3 Xrotation Yrotation Zrotation
					JOINT RightToeBase
					{
						OFFSET -0.970200 -13.225400 11.864200
						CHANNELS 3 Xrotation Yrotation Zrotation
						End Site
						{
							OFFSET 0.000000 12.319244 0.000000
						}
					}
					JOINT RFootTongue
					{
						OFFSET -1.142200 -1.059800 6.665200
						CHANNELS 3 Xrotation Yrotation Zrotation
						End Site
						{
							OFFSET 0.000000 12.319243 0.000000
						}
					}
				}
				JOINT RightPantLeg
				{
					OFFSET -0.919482 -16.533978 -2.284800
					CHANNELS 3 Xrotation Yrotation Zrotation
					End Site
					{
						OFFSET -0.350400 24.744419 0.000000
					}
				}
			}
		}
	}
	JOINT Spine
	{
		OFFSET 0.000000 7.722000 1.166200
		CHANNELS 3 Xrotation Yrotation Zrotation
		JOINT Spine1
		{
			OFFSET 0.000000 12.024101 0.248800
			CHANNELS 3 Xrotation Yrotation Zrotation
			JOINT Spine2
			{
				OFFSET 0.000000 11.502998 -0.491200
				CHANNELS 3 Xrotation Yrotation Zrotation
				JOINT Neck
				{
					OFFSET 0.000000 18.430702 -3.123100
					CHANNELS 3 Xrotation Yrotation Zrotation
					JOINT Head
					{
						OFFSET 0.000000 9.051102 1.034000
						CHANNELS 3 Xrotation Yrotation Zrotation
						JOINT HairB
						{
							OFFSET 0.208400 24.786102 24.822300
							CHANNELS 3 Xrotation Yrotation Zrotation
							End Site
							{
								OFFSET 0.000000 32.263779 0.000000
							}
						}
						JOINT HairA
						{
							OFFSET -7.081100 24.428299 23.196600
							CHANNELS 3 Xrotation Yrotation Zrotation
							End Site
							{
								OFFSET 0.000000 32.263779 0.000000
							}
						}
						JOINT Hat
						{
							OFFSET 16.728800 15.048294 -15.439601
							CHANNELS 3 Xrotation Yrotation Zrotation
							End Site
							{
								OFFSET 0.000000 32.263779 0.000000
							}
						}
					}
				}
				JOINT LeftShoulder
				{
					OFFSET 6.197800 13.665199 -4.064700
					CHANNELS 3 Xrotation Yrotation Zrotation
					JOINT LeftArm
					{
						OFFSET 7.778100 -0.187103 -1.709300
						CHANNELS 3 Xrotation Yrotation Zrotation
						JOINT LeftForeArm
						{
							OFFSET 22.049376 0.000000 0.000000
							CHANNELS 3 Xrotation Yrotation Zrotation
							JOINT LeftHand
							{
								OFFSET 23.009392 0.000000 0.000000
								CHANNELS 3 Xrotation Yrotation Zrotation
								JOINT LeftHandThumb1
								{
									OFFSET 3.507191 -2.063065 3.133727
									CHANNELS 3 Xrotation Yrotation Zrotation
									JOINT LeftHandThumb2
									{
										OFFSET 3.101337 -1.790558 1.790558
										CHANNELS 3 Xrotation Yrotation Zrotation
										JOINT LeftHandThumb3
										{
											OFFSET 3.058640 -1.765907 1.765906
											CHANNELS 3 Xrotation Yrotation Zrotation
											End Site
											{
												OFFSET -0.415260 3.926476 -0.049563
											}
										}
									}
								}
								JOINT LeftHandIndex1
								{
									OFFSET 11.334419 -0.901459 3.706815
									CHANNELS 3 Xrotation Yrotation Zrotation
									JOINT LeftHandIndex2
									{
										OFFSET 3.283112 0.000000 0.000000
										CHANNELS 3 Xrotation Yrotation Zrotation
										JOINT LeftHandIndex3
										{
											OFFSET 3.323853 0.000000 0.000000
											CHANNELS 3 Xrotation Yrotation Zrotation
											End Site
											{
												OFFSET -1.135597 3.097809 0.402452
											}
										}
									}
								}
								JOINT LeftHandMiddle1
								{
									OFFSET 11.335861 0.000000 0.000000
									CHANNELS 3 Xrotation Yrotation Zrotation
									JOINT LeftHandMiddle2
									{
										OFFSET 3.410492 0.000000 0.000000
										CHANNELS 3 Xrotation Yrotation Zrotation
										JOINT LeftHandMiddle3
										{
											OFFSET 3.312172 0.000000 0.000000
											CHANNELS 3 Xrotation Yrotation Zrotation
											End Site
											{
												OFFSET -1.150200 3.080154 0.400270
											}
										}
									}
								}
								JOINT LeftHandRing1
								{
									OFFSET 11.514786 -0.013176 -3.003090
									CHANNELS 3 Xrotation Yrotation Zrotation
									JOINT LeftHandRing2
									{
										OFFSET 3.053307 0.000000 0.000000
										CHANNELS 3 Xrotation Yrotation Zrotation
										JOINT LeftHandRing3
										{
											OFFSET 3.295807 0.000000 0.000000
											CHANNELS 3 Xrotation Yrotation Zrotation
											End Site
											{
												OFFSET -1.281006 3.013344 0.375733
											}
										}
									}
								}
								JOINT LeftHandPinky1
								{
									OFFSET 10.518692 -0.960396 -5.730441
									CHANNELS 3 Xrotation Yrotation Zrotation
									JOINT LeftHandPinky2
									{
										OFFSET 2.861649 0.000000 0.000000
										CHANNELS 3 Xrotation Yrotation Zrotation
										JOINT LeftHandPinky3
										{
											OFFSET 2.863380 0.000000 0.000000
											CHANNELS 3 Xrotation Yrotation Zrotation
											End Site
											{
												OFFSET -0.843597 2.711159 0.369971
											}
										}
									}
								}
							}
							JOINT LSleeve
							{
								OFFSET 6.676277 -0.344902 -1.011730
								CHANNELS 3 Xrotation Yrotation Zrotation
								End Site
								{
									OFFSET 0.000000 14.885353 0.000000
								}
							}
						}
					}
				}
				JOINT RightShoulder
				{
					OFFSET -6.197800 13.665199 -4.064700
					CHANNELS 3 Xrotation Yrotation Zrotation
					JOINT RightArm
					{
						OFFSET -7.778100 -0.187103 -1.709300
						CHANNELS 3 Xrotation Yrotation Zrotation
						JOINT RightForeArm
						{
							OFFSET -22.049376 0.000000 0.000000
							CHANNELS 3 Xrotation Yrotation Zrotation
							JOINT RightHand
							{
								OFFSET -23.009392 0.000000 0.000000
								CHANNELS 3 Xrotation Yrotation Zrotation
								JOINT RightHandThumb1
								{
									OFFSET -3.507191 -2.063065 3.133727
									CHANNELS 3 Xrotation Yrotation Zrotation
									JOINT RightHandThumb2
									{
										OFFSET -3.101337 -1.790558 1.790558
										CHANNELS 3 Xrotation Yrotation Zrotation
										JOINT RightHandThumb3
										{
											OFFSET -3.058640 -1.765907 1.765906
											CHANNELS 3 Xrotation Yrotation Zrotation
											End Site
											{
												OFFSET 0.415260 3.926476 -0.049563
											}
										}
									}
								}
								JOINT RightHandIndex1
								{
									OFFSET -11.334419 -0.901459 3.706815
									CHANNELS 3 Xrotation Yrotation Zrotation
									JOINT RightHandIndex2
									{
										OFFSET -3.283112 0.000000 0.000000
										CHANNELS 3 Xrotation Yrotation Zrotation
										JOINT RightHandIndex3
										{
											OFFSET -3.323853 0.000000 0.000000
											CHANNELS 3 Xrotation Yrotation Zrotation
											End Site
											{
												OFFSET 1.135597 3.097809 0.402452
											}
										}
									}
								}
								JOINT RightHandMiddle1
								{
									OFFSET -11.335861 0.000000 0.000000
									CHANNELS 3 Xrotation Yrotation Zrotation
									JOINT RightHandMiddle2
									{
										OFFSET -3.410492 0.000000 0.000000
										CHANNELS 3 Xrotation Yrotation Zrotation
										JOINT RightHandMiddle3
										{
											OFFSET -3.312172 0.000000 0.000000
											CHANNELS 3 Xrotation Yrotation Zrotation
											End Site
											{
												OFFSET 1.150200 3.080154 0.400270
											}
										}
									}
								}
								JOINT RightHandRing1
								{
									OFFSET -11.514786 -0.013176 -3.003090
									CHANNELS 3 Xrotation Yrotation Zrotation
									JOINT RightHandRing2
									{
										OFFSET -3.053307 0.000000 0.000000
										CHANNELS 3 Xrotation Yrotation Zrotation
										JOINT RightHandRing3
										{
											OFFSET -3.295807 0.000000 0.000000
											CHANNELS 3 Xrotation Yrotation Zrotation
											End Site
											{
												OFFSET 1.281006 3.013344 0.375733
											}
										}
									}
								}
								JOINT RightHandPinky1
								{
									OFFSET -10.518692 -0.960396 -5.730441
									CHANNELS 3 Xrotation Yrotation Zrotation
									JOINT RightHandPinky2
									{
										OFFSET -2.861649 0.000000 0.000000
										CHANNELS 3 Xrotation Yrotation Zrotation
										JOINT RightHandPinky3
										{
											OFFSET -2.863380 0.000000 0.000000
											CHANNELS 3 Xrotation Yrotation Zrotation
											End Site
											{
												OFFSET 0.843597 2.711159 0.369971
											}
										}
									}
								}
							}
							JOINT RSleeve
							{
								OFFSET -6.676277 -0.344902 -1.011730
								CHANNELS 3 Xrotation Yrotation Zrotation
								End Site
								{
									OFFSET 0.000000 14.885353 0.000000
								}
							}
						}
					}
				}
				JOINT Backpack
				{
					OFFSET 0.000000 -2.471497 36.677502
					CHANNELS 3 Xrotation Yrotation Zrotation
					End Site
					{
						OFFSET 0.000000 20.427315 0.000000
					}
				}
				JOINT Hood
				{
					OFFSET 0.000000 18.754097 -10.431000
					CHANNELS 3 Xrotation Yrotation Zrotation
					JOINT Hood1
					{
						OFFSET 0.000000 -5.011002 -7.685901
						CHANNELS 3 Xrotation Yrotation Zrotation
						End Site
						{
							OFFSET 0.000000 9.175140 0.000000
						}
					}
				}
				JOINT LHoodieString
				{
					OFFSET 5.250500 16.397697 3.089900
					CHANNELS 3 Xrotation Yrotation Zrotation
					JOINT LHoodieString1
					{
						OFFSET 0.257700 -6.364304 3.694600
						CHANNELS 3 Xrotation Yrotation Zrotation
						JOINT LHoodieString2
						{
							OFFSET 0.000000 -9.643799 2.679100
							CHANNELS 3 Xrotation Yrotation Zrotation
							End Site
							{
								OFFSET 0.000000 10.009018 0.000000
							}
						}
					}
				}
				JOINT RHoodieString
				{
					OFFSET -5.250500 16.397697 3.089900
					CHANNELS 3 Xrotation Yrotation Zrotation
					JOINT RHoodieString1
					{
						OFFSET -0.257700 -6.364304 3.694600
						CHANNELS 3 Xrotation Yrotation Zrotation
						JOINT RHoodieString2
						{
							OFFSET 0.000000 -9.643799 2.679100
							CHANNELS 3 Xrotation Yrotation Zrotation
							End Site
							{
								OFFSET 0.000000 10.009018 0.000000
							}
						}
					}
				}
			}
			JOINT LBackpack_Strap
			{
				OFFSET 15.223200 -7.719803 -6.610900
				CHANNELS 3 Xrotation Yrotation Zrotation
				End Site
				{
					OFFSET 0.000000 16.040596 0.000000
				}
			}
			JOINT RBackpack_Strap
			{
				OFFSET -15.223000 -7.719803 -6.610900
				CHANNELS 3 Xrotation Yrotation Zrotation
				End Site
				{
					OFFSET 0.000000 16.040596 0.000000
				}
			}
		}
	}
	JOINT BoyFacialAnim_Joint
	{
		OFFSET 1.000000 -82.208099 -1.550900
		CHANNELS 3 Xrotation Yrotation Zrotation
		End Site
		{
			OFFSET 0.000000 30.012791 0.000000
		}
	}
}
MOTION
Frames: 4
Frame Time: 0.016667
5.935004 82.490753 -0.065995 0.023818 -13.963485 -2.171015 0.000000 0.000000 0.000000 -15.956019 21.791288 8.346366 22.443790 9.972915 5.321953 -7.497024 7.437886 -6.969316 0.000000 0.000001 0.000000 0.000000 0.000001 0.000000 -0.000000 -0.000001 0.000000 -12.562912 -18.850142 -8.283946 9.631615 9.863902 -2.863230 0.702790 8.038394 9.415610 0.000000 -0.000001 0.000000 0.000000 -0.000001 0.000000 -0.000000 -0.000004 -0.000001 1.260655 -1.105182 -1.992346 0.247989 -0.899453 -0.732541 0.243785 -0.917160 -0.703879 0.749591 2.295823 1.468098 -1.250655 13.693913 -1.535070 0.000000 -0.000000 -0.000001 0.000000 -0.000000 -0.000001 0.000000 -0.000000 -0.000001 -1.488744 9.670791 -3.001457 40.860480 -60.704836 -25.987222 0.000008 -22.817333 0.000006 -25.332873 2.522395 11.628337 -3.405762 19.076295 14.453268 15.249485 14.620648 -5.800667 -0.000001 -0.000002 -0.000001 0.380315 2.260831 -19.095165 0.158427 1.471512 -12.290085 0.000002 -0.000000 -0.000002 0.379673 2.259011 -19.079146 0.158850 1.473385 -12.306093 -0.000002 -0.000000 0.000000 0.380314 2.260834 -19.095174 0.158430 1.471504 -12.290079 -0.000001 -0.000001 -0.000001 1.696007 6.096985 -18.680653 0.153587 -2.584201 -12.789182 0.000004 0.000001 -0.000000 0.000001 0.000001 -0.000001 4.389556 5.095596 -14.946394 -41.397865 -19.780016 36.650829 0.000142 107.697692 -0.000152 -54.775296 -10.060508 16.832159 -38.571847 8.421476 28.523247 20.647214 -5.709668 -0.778476 0.000000 0.000001 -0.000004 6.266134 -6.914858 84.352344 5.176795 -6.719694 75.194782 0.000001 0.000001 0.000005 6.266121 -6.914856 84.352338 5.176793 -6.719689 75.194782 -0.000004 0.000001 0.000005 6.266115 -6.914835 84.352344 5.176783 -6.719702 75.194782 -0.000003 -0.000002 0.000005 6.266109 -6.914822 84.352344 5.176801 -6.719712 75.194762 -0.000002 0.000000 0.000000 -0.000000 0.000000 -0.000004 -0.000000 0.000002 -0.000001 -0.000000 0.000002 -0.000001 -0.000000 0.000002 -0.000001 -0.000000 0.000002 -0.000001 -0.000000 0.000002 -0.000000 0.000000 0.000002 -0.000000 -0.000000 0.000002 -0.000001 -0.000000 0.000002 -0.000000 0.000000 0.000002 -0.000000 -0.000000 -0.000001 0.000000 -0.000000 -0.000001 0.000000 0.000000 0.000000 0.000000 
5.793922 82.498558 -0.063624 0.038769 -13.777136 -2.174435 0.000000 -0.000000 0.000000 -15.968263 21.707840 8.455173 22.361792 9.972153 5.308323 -7.389336 7.336870 -7.061336 -0.000000 -0.000001 -0.000000 -0.000000 -0.000001 0.000000 -0.000000 0.000003 -0.000000 -12.564083 -18.722689 -8.247542 9.873447 9.863613 -2.726908 0.529298 7.709857 9.236814 0.000000 -0.000000 -0.000000 0.000000 -0.000000 -0.000000 -0.000000 -0.000003 -0.000000 1.263609 -1.092150 -1.908831 0.244306 -0.890373 -0.689607 0.239954 -0.906840 -0.661084 0.708955 2.285037 1.414968 -1.291728 13.566501 -1.516493 -0.000000 -0.000000 -0.000000 -0.000000 -0.000000 -0.000000 -0.000000 -0.000000 -0.000000 -1.481852 9.673273 -3.066328 40.859629 -60.864594 -25.969269 -0.000020 -22.750785 0.000005 -25.272313 2.521528 11.564785 -3.405762 19.076291 14.453263 15.249475 14.620652 -5.800663 -0.000003 -0.000001 -0.000004 0.380313 2.260833 -19.095168 0.158434 1.471507 -12.290088 -0.000003 -0.000000 -0.000000 0.379675 2.259010 -19.079143 0.158855 1.473388 -12.306097 -0.000000 -0.000000 -0.000002 0.380312 2.260834 -19.095174 0.158429 1.471505 -12.290085 -0.000002 0.000000 -0.000000 1.696011 6.096983 -18.680651 0.153587 -2.584199 -12.789183 0.000001 0.000001 -0.000002 -0.000000 0.000001 -0.000001 4.393043 5.145392 -14.614276 -40.060033 -18.545333 36.976913 -0.000001 107.194184 -0.000007 -53.879469 -10.236978 17.000802 -38.575471 8.422912 28.525124 25.307294 -7.950552 -1.561562 -0.000001 0.000003 -0.000002 5.616241 -6.819983 78.921135 4.647610 -6.558062 70.620037 -0.000000 0.000001 0.000004 5.616220 -6.819990 78.921142 4.647609 -6.558069 70.620031 -0.000003 0.000002 0.000000 5.616223 -6.819968 78.921135 4.647598 -6.558075 70.620044 0.000000 -0.000002 0.000002 5.616220 -6.819960 78.921142 4.647623 -6.558083 70.620044 0.000001 -0.000002 -0.000004 0.000001 -0.000002 0.000002 -0.000000 -0.000001 0.000000 -0.000000 -0.000001 0.000000 -0.000000 -0.000001 0.000000 -0.000000 -0.000001 0.000000 -0.000000 -0.000001 0.000001 0.000000 -0.000001 0.000000 -0.000000 -0.000001 0.000000 -0.000000 -0.000001 0.000001 0.000000 -0.000001 0.000000 0.000000 0.000001 -0.000000 0.000000 0.000001 -0.000000 0.000000 -0.000000 0.000000 
5.647784 82.506828 -0.061564 0.047772 -13.592643 -2.183368 -0.000000 0.000001 0.000000 -15.973594 21.611065 8.577411 22.280304 9.971619 5.280739 -7.281110 7.238113 -7.153342 0.000000 0.000001 0.000000 0.000000 0.000001 0.000000 0.000001 -0.000002 0.000000 -12.548809 -18.612725 -8.185645 10.099657 9.863838 -2.619638 0.360259 7.395558 9.067075 -0.000000 -0.000001 -0.000000 -0.000000 -0.000001 -0.000000 -0.000000 0.000000 -0.000001 1.268607 -1.083423 -1.826019 0.241808 -0.884486 -0.647218 0.237303 -0.899711 -0.618708 0.663437 2.273471 1.368833 -1.324470 13.444068 -1.498671 0.000000 0.000000 0.000000 0.000000 0.000000 0.000000 0.000000 0.000000 0.000000 -1.475812 9.676775 -3.126218 40.863471 -61.027645 -25.944137 0.000001 -22.683946 0.000012 -25.239998 2.530283 11.484753 -3.405766 19.076290 14.453271 15.249478 14.620650 -5.800665 -0.000001 -0.000004 -0.000004 0.380308 2.260831 -19.095163 0.158432 1.471506 -12.290084 0.000003 -0.000001 -0.000002 0.379672 2.259010 -19.079146 0.158854 1.473386 -12.306093 -0.000000 0.000001 -0.000001 0.380311 2.260833 -19.095174 0.158432 1.471505 -12.290079 0.000000 0.000001 -0.000004 1.696010 6.096981 -18.680649 0.153584 -2.584204 -12.789183 0.000003 0.000002 -0.000002 0.000000 0.000000 -0.000000 4.393938 5.191682 -14.254584 -38.714796 -17.278386 37.271871 0.000052 106.679645 -0.000060 -53.035309 -10.392661 17.074706 -38.565642 8.419039 28.520029 29.758205 -10.003513 -1.882587 0.000001 -0.000001 -0.000001 4.775634 -6.601421 71.737067 4.103772 -6.341921 65.781436 -0.000003 0.000001 0.000004 4.775623 -6.601423 71.737074 4.103771 -6.341907 65.781436 0.000003 -0.000001 -0.000000 4.775626 -6.601403 71.737067 4.103756 -6.341910 65.781429 0.000000 -0.000004 0.000002 4.775620 -6.601393 71.737067 4.103776 -6.341922 65.781436 0.000002 -0.000002 -0.000005 0.000001 -0.000000 -0.000003 -0.000000 -0.000000 -0.000000 -0.000000 -0.000000 -0.000000 -0.000000 -0.000000 -0.000000 -0.000000 -0.000000 -0.000000 -0.000000 -0.000000 -0.000000 -0.000000 0.000001 -0.000000 -0.000000 -0.000000 -0.000000 -0.000000 -0.000000 -0.000000 -0.000000 0.000001 -0.000000 0.000000 -0.000000 -0.000000 0.000000 -0.000000 -0.000000 -0.000000 0.000001 0.000000 
5.497384 82.515793 -0.060105 0.046259 -13.410190 -2.199330 -0.000000 0.000000 0.000000 -15.968475 21.503946 8.708733 22.197536 9.970981 5.250293 -7.168720 7.138755 -7.250225 -0.000000 0.000000 0.000000 -0.000000 0.000000 0.000000 0.000000 -0.000002 -0.000000 -12.510367 -18.508452 -8.100378 10.308221 9.864117 -2.532911 0.197186 7.085176 8.903731 -0.000000 -0.000000 0.000000 -0.000000 -0.000000 0.000000 -0.000000 0.000000 -0.000000 1.275388 -1.079239 -1.744869 0.240360 -0.881941 -0.605872 0.235707 -0.895956 -0.577243 0.611920 2.260317 1.331698 -1.350458 13.324901 -1.480448 0.000000 0.000000 -0.000000 0.000000 0.000000 -0.000000 0.000000 0.000000 -0.000000 -1.470858 9.679990 -3.176227 40.866149 -61.194895 -25.918674 0.000008 -22.613870 -0.000001 -25.231069 2.553770 11.386491 -3.405766 19.076291 14.453264 15.249482 14.620647 -5.800664 0.000000 -0.000001 -0.000004 0.380312 2.260833 -19.095170 0.158433 1.471511 -12.290084 -0.000003 -0.000001 -0.000002 0.379674 2.259010 -19.079146 0.158856 1.473387 -12.306093 -0.000001 0.000001 0.000000 0.380308 2.260834 -19.095177 0.158430 1.471504 -12.290082 -0.000000 -0.000000 -0.000000 1.696008 6.096984 -18.680653 0.153584 -2.584203 -12.789182 0.000003 -0.000001 0.000001 -0.000001 0.000001 0.000001 4.391627 5.233457 -13.862316 -37.354988 -15.971183 37.525927 0.000049 106.153441 -0.000059 -52.233626 -10.519489 17.034888 -38.310405 8.317421 28.387236 33.606027 -11.676489 -1.838673 0.000003 0.000001 -0.000002 3.866136 -6.230271 63.611485 3.573336 -6.077080 60.880686 0.000001 0.000000 0.000002 3.866126 -6.230267 63.611492 3.573356 -6.077077 60.880686 0.000001 -0.000006 -0.000001 3.866131 -6.230251 63.611485 3.573331 -6.077075 60.880673 0.000001 -0.000002 0.000000 3.866118 -6.230243 63.611485 3.573360 -6.077087 60.880659 0.000002 -0.000005 0.000003 -0.000001 -0.000001 -0.000000 -0.000000 0.000002 -0.000000 -0.000000 0.000002 -0.000000 -0.000000 0.000002 -0.000000 -0.000000 0.000002 -0.000000 -0.000000 0.000002 -0.000000 0.000000 0.000000 -0.000000 -0.000000 0.000002 -0.000000 -0.000000 0.000002 -0.000000 0.000000 0.000000 -0.000000 -0.000000 -0.000001 0.000000 -0.000000 -0.000001 0.000000 -0.000000 0.000000 0.000000 
